<?xml version="1.0" encoding="utf-8"?>
<!-- Generator: Adobe Illustrator 19.0.0, SVG Export Plug-In . SVG Version: 6.00 Build 0)  -->
<svg version="1.1" id="Layer_1" xmlns="http://www.w3.org/2000/svg" xmlns:xlink="http://www.w3.org/1999/xlink" x="0px" y="0px"
	 viewBox="0 0 283.5 54.5" style="enable-background:new 0 0 283.5 54.5;" xml:space="preserve">
<style type="text/css">
	.st0{fill:#005884;}
</style>
<path id="XMLID_29_" class="st0" d="M234.9,12.9c-2.7,0-5.3,0.4-7.8,1.1c-1.2,0.3-2.3,0.8-3.4,1.3c-0.2-0.3-0.4-0.6-0.7-0.9
	c-1-1-2.2-1.4-3.6-1.4h-5.4v40.6h10.4V32.4c0-4.1,0.7-5.7,2.1-7.1c1.4-1.4,3.5-2.1,6.4-2.1h4.5V12.9H234.9z"/>
<path id="XMLID_28_" class="st0" d="M44.9,0.9h-5.4v47.5c0,1.4,0.5,2.6,1.5,3.6c1,1,2.2,1.4,3.6,1.4h5.4V5.9c0-1.4-0.5-2.6-1.5-3.6
	C47.5,1.4,46.3,0.9,44.9,0.9"/>
<path class="st0" d="M72.1,11.9c11.7,0,18.2,7.9,18.2,21c0,13.1-6.5,20.9-18.2,20.9C60.2,53.8,54,46,54,32.9
	C54,19.8,60.2,11.9,72.1,11.9 M72.1,45.2c6.2,0,8.1-6.6,8.1-12.2c0-5.6-2-12.3-8.1-12.3c-6.2,0-8.1,6.7-8.1,12.3
	C64.1,38.6,65.9,45.2,72.1,45.2"/>
<path id="XMLID_25_" class="st0" d="M18.3,45.2c-6.2,0-8.1-6.6-8.1-12.2c0-5.6,1.9-12.3,8.1-12.3c3.2,0,5.3,1.8,6.5,4.3h10.8
	c-2.2-8.4-8.2-13.2-17.3-13.2c-12,0-18.2,7.9-18.2,21c0,13.1,6.2,20.9,18.2,20.9c9.2,0,15.1-4.8,17.3-13.1h-7.1c0,0-1.9,0.1-3,1.1
	C23.7,43.6,22.2,45.2,18.3,45.2"/>
<path id="XMLID_24_" class="st0" d="M127.4,14.4c-0.9-1-2.2-1.5-3.6-1.5h-5.2v25.4c0,2.4-0.7,4.2-2.2,5.3s-3.1,1.7-4.8,1.7
	c-1.8,0-3.4-0.6-4.8-1.7s-2.2-2.9-2.2-5.3V18c0-1.4-0.5-2.6-1.4-3.6c-0.9-1-2.2-1.5-3.6-1.5h-5.2v23.6c0,7.2,2,11.6,5.5,14.1
	c3.5,2.5,7.4,3.3,11.8,3.3c4.4,0,8.3-0.9,11.8-3.3c3.5-2.5,5.5-6.9,5.5-14.1V18C128.8,16.6,128.4,15.4,127.4,14.4"/>
<path class="st0" d="M151.4,45.2c-6.3,0-8.2-6.6-8.2-12.2c0-5.6,1.9-12.3,8.2-12.3c6.2,0,8.3,6.6,8.3,12.2v0.1
	C159.7,38.7,157.7,45.2,151.4,45.2 M168.5,2.4c-1-1-2.2-1.4-3.6-1.4h-5.2v15c-1.6-1.5-4.9-4-10-4c-10.6,0-16.8,7.9-16.8,21
	c0,13.1,6.3,20.9,18.5,20.9c11.9,0,18.5-7.8,18.5-20.7h0V5.9C170,4.5,169.5,3.3,168.5,2.4"/>
<path class="st0" d="M192.1,20.8c-4.3,0-7.2,3.2-7.5,7.1h15C199.6,24,196.3,20.8,192.1,20.8 M210.2,30.6c0,0.9-0.2,1.7-0.5,2.4
	c-0.2,0.4-0.5,0.9-0.9,1.3c-0.9,1-2.1,1.5-3.5,1.5h-21.1c0.3,4.8,2.7,9.5,7.9,9.5c3.9,0,5.4-1.7,7.3-3.5c1.1-1,3-1.1,3-1.1h7.1
	c-2.2,8.3-8.1,13.1-17.3,13.1c-12,0-18.2-7.8-18.2-20.9c0-13.1,6.2-21,18.2-21c9.2,0,15.2,4.8,17.3,13.2c0.4,1.5,0.6,3.1,0.8,4.8
	L210.2,30.6z"/>
<path class="st0" d="M261,42.9c-1.6,1.6-3.8,2.4-6.5,2.4c-0.9,0-3.6-0.2-4.7-1.3c-0.8-0.8-1.3-1.6-1.3-3.1c0-1.1,0.4-2.1,1-2.8
	c1.5-1.6,3.1-1.8,6.5-2.6c2.3-0.5,5.1-1.4,6.6-2.2v3.1C262.6,39,262.6,41.3,261,42.9 M272.2,23.2c0-3.6-1.4-6.4-4.3-8.4
	c-2.8-1.9-6.9-2.8-12.5-2.8c-5,0-8.8,1.1-11.4,3.4c-2.4,2-3.8,4.7-4.2,7.8h10c0.5-1.3,1.3-2,2.4-2.4c1.1-0.4,2.3-0.6,3.7-0.6
	c1.7,0,3,0.2,4.2,0.7c1.5,0.5,2.3,1.4,2.3,2.9c0,1.6-2.2,3.1-6.5,3.7c-5.2,0.7-9.4,1.3-13.2,4.1c-2.4,1.8-3.9,5.1-3.9,9.3
	c0,4.5,1.4,7.7,4,9.7c2.4,1.8,6.2,3.3,12.4,3.3c5.6,0,9.7-1.2,12.5-3.1c2.9-2,4.5-4.3,4.6-8.5V23.2z"/>
<path class="st0" d="M277.9,16.2h0.9c0.5,0,0.8-0.2,0.8-0.8c0-0.6-0.3-0.8-0.9-0.8h-0.7V16.2z M278.7,17h-0.9v1.8H277V14h1.6
	c1.2,0,1.8,0.4,1.8,1.5c0,0.8-0.2,1.2-0.8,1.4l0.9,1.9h-0.9L278.7,17z M278.7,19.9c1.9,0,3.3-1.6,3.3-3.5c0-2-1.4-3.5-3.3-3.5
	c-1.9,0-3.3,1.6-3.3,3.5C275.4,18.3,276.8,19.9,278.7,19.9 M278.7,12.2c2.4,0,4,1.9,4,4.2c0,2.3-1.6,4.2-4,4.2c-2.4,0-4-1.9-4-4.2
	C274.7,14.1,276.3,12.2,278.7,12.2"/>
</svg>
