<?xml version="1.0" encoding="utf-8"?>
<!-- Generator: Adobe Illustrator 19.0.0, SVG Export Plug-In . SVG Version: 6.00 Build 0)  -->
<svg version="1.1" id="Layer_1" xmlns="http://www.w3.org/2000/svg" xmlns:xlink="http://www.w3.org/1999/xlink" x="0px" y="0px"
	 viewBox="0 0 283.5 283.5" style="enable-background:new 0 0 283.5 283.5;" xml:space="preserve">
<path id="XMLID_6_" d="M0,0v283.5h283.5V0H0z M143.6,190c15.4,0,21.5-6.6,29-13.6c4.3-4.1,11.9-4.3,11.9-4.3h28.3
	c-8.7,32.8-32.5,51.7-69.2,51.7C95.8,223.8,71,193,71,141.6C71,90,95.8,59,143.6,59c36.7,0,60.6,18.9,69.3,51.8h-43.2
	c-5-9.9-13.3-17-26.1-17c-24.7,0-32.2,26.3-32.2,48.2S118.8,190,143.6,190z"/>
</svg>
